<svg width="401.186" height="343.926" xmlns="http://www.w3.org/2000/svg">
 <defs>
  <filter filterUnits="userSpaceOnUse" height="134.167" width="159.544" y="144.667" x="12.439" id="Rectangle_3">
   <feGaussianBlur result="blur" stdDeviation="2.344"/>
  </filter>
  <filter filterUnits="userSpaceOnUse" height="236.334" width="221.051" y="18.136" x="159.972" id="Rectangle_4">
   <feGaussianBlur result="blur-2" stdDeviation="2.344"/>
  </filter>
  <filter filterUnits="userSpaceOnUse" height="237.167" width="330.558" y="59.035" x="31.828" id="Rectangle_5">
   <feGaussianBlur result="blur-3" stdDeviation="2.344"/>
  </filter>
 </defs>
 <g>
  <title>Layer 1</title>
  <g data-name="Group 33" id="Group_33">
   <g id="svg_1" filter="url(#Rectangle_3)" transform="matrix(1 0 0 1 61.06 184.58)">
    <rect transform="rotate(-6.98 -41.591 -19.438)" x="-41.591" y="-19.438" fill="#fac14d" rx="9.336" height="104.622" width="133.756" data-name="Rectangle 3" id="Rectangle_3-2"/>
   </g>
   <g id="svg_2" filter="url(#Rectangle_4)" transform="matrix(1 0 0 1 61.06 184.58)">
    <rect transform="rotate(-26.6 105.949 -98.278)" x="105.94899" y="-98.278" fill="#5439f8" rx="9.336" height="177.059" width="142.829" data-name="Rectangle 4" id="Rectangle_4-2"/>
   </g>
   <path stroke-width="0.488" stroke-miterlimit="10" stroke="#fac14d" fill="none" d="m125.029,108.228c-71.007,-81.185 35.317,-145.691 97.571,-77.874s130.366,37.324 152.118,63.4s30.97,127.327 -88.829,111.458s0.142,67.042 -45.571,115.142s-186.4,18.151 -145.642,-59.045s-75.4,-48.606 -67.984,-124.952s98.337,-28.129 98.337,-28.129z" data-name="Path 3" id="Path_3"/>
   <g data-name="Group 9" id="Group_9">
    <g data-name="Group 8" id="Group_8">
     <g id="svg_3" filter="url(#Rectangle_5)" transform="matrix(1 0 0 1 -38.86 -63.25)">
      <rect x="45.78758" y="58.80642" fill="#f2f2f2" transform="matrix(0.99 0.11 -0.11 0.99 60.08 63.25)" height="191.34" width="297.109" data-name="Rectangle 5" id="Rectangle_5-2"/>
     </g>
     <rect x="45.63284" y="58.54099" fill="#e6e6e6" transform="matrix(0.994 0.111 -0.111 0.994 21.214 0)" height="25.064" width="297.109" data-name="Rectangle 6" id="Rectangle_6"/>
     <path fill="#fff" d="m341.009,115.66499l-271.235,-30.257a4.2,4.2 0 0 1 -3.712,-4.644l0,0a4.2,4.2 0 0 1 4.644,-3.712l271.236,30.258a4.2,4.2 0 0 1 3.711,4.647l0,0a4.2,4.2 0 0 1 -4.644,3.708z" data-name="Path 4" id="Path_4"/>
     <path fill="#3fc080" d="m72.84599,72.08299a2.89,2.89 0 1 1 -2.551,-3.191a2.891,2.891 0 0 1 2.551,3.191z" data-name="Path 5" id="Path_5"/>
     <path fill="#5439f8" d="m83.58699,73.27899a2.889,2.889 0 1 1 -2.551,-3.193a2.89,2.89 0 0 1 2.551,3.193z" data-name="Path 6" id="Path_6"/>
     <path fill="#fac14d" d="m94.331,74.47699a2.89,2.89 0 1 1 -2.551,-3.191a2.891,2.891 0 0 1 2.551,3.191z" data-name="Path 7" id="Path_7"/>
    </g>
    <path fill="#fff" d="m293.047,199.30999l-194.923,-21.744a13.718,13.718 0 0 1 -12.112,-15.154l0,0a13.716,13.716 0 0 1 15.153,-12.111l194.921,21.744a13.719,13.719 0 0 1 12.112,15.153l0,0a13.716,13.716 0 0 1 -15.151,12.112z" data-name="Path 8" id="Path_8"/>
    <text transform="rotate(6.366 98.307 167.429)" x="98.307" y="167.42899" font-family="SegoeUI, Segoe UI" font-size="18" fill="#4d4d4d" id="keyword">
     <tspan id="svg_4" y="0" x="0">keyword</tspan>
    </text>
    <path fill="#5237f4" d="m300.555,186.34599l-8.618,-10.137l-0.515,4.615l-7.938,-0.886l-0.993,8.9l7.938,0.886l-0.515,4.614l10.641,-7.992z" data-name="Path 9" id="Path_9"/>
   </g>
   <g data-name="Group 10" id="Group_10">
    <rect transform="rotate(38.02 72.013 193.125)" x="72.013" y="193.12501" fill="#3d26c7" height="13.775" width="13.775" data-name="Rectangle 7" id="Rectangle_7"/>
    <path fill="#5439f8" d="m135.416,123.21501a49.08,49.08 0 1 0 8.434,68.895a49.081,49.081 0 0 0 -8.434,-68.895zm-54.422,69.607a39.276,39.276 0 1 1 55.132,-6.751a39.275,39.275 0 0 1 -55.132,6.751z" data-name="Path 10" id="Path_10"/>
    <path fill="#3fc080" d="m76.305,210.08301l-10.932,-8.549c-1.943,-1.519 -3.458,-0.166 -4.978,1.779l-40.592,49.254a4.466,4.466 0 0 0 0.767,6.269l10.934,8.549a4.464,4.464 0 0 0 6.269,-0.769l38.007,-51.274c1.519,-1.943 2.467,-3.739 0.525,-5.259z" data-name="Path 11" id="Path_11"/>
   </g>
   <path fill="#3fc080" d="m253.822,247.80999a20.055,20.055 0 0 0 -22.1,-14.878c-0.092,0.01 -0.185,0.029 -0.277,0.041s-0.185,0.016 -0.277,0.025a20.059,20.059 0 0 0 -17.855,19.772a4.412,4.412 0 0 0 -0.053,0.923l0.019,0.158l0.31,2.526l0.012,0.107c0.006,0.045 0.018,0.09 0.023,0.135c0.041,0.246 0.105,0.618 0.168,0.944c0.02,0.088 0.035,0.177 0.057,0.265l0.014,0.07c0.039,0.154 0.092,0.31 0.137,0.464a16.4,16.4 0 0 0 0.923,2.461c0.076,0.166 0.152,0.332 0.234,0.5c0.057,0.113 0.115,0.226 0.174,0.339c2.3,4.506 6.331,8.931 9.618,13.216c4.371,5.682 8.867,11.25 13.333,16.817c0.137,0.179 0.271,0.361 0.408,0.538l0.01,-0.018l0.012,0.016c0.09,-0.207 0.177,-0.414 0.265,-0.62c2.994,-6.481 6.013,-12.969 8.884,-19.538c2.155,-4.952 5,-10.217 6.144,-15.144c0.031,-0.127 0.06,-0.252 0.088,-0.378c0.039,-0.178 0.072,-0.355 0.105,-0.532a16.277,16.277 0 0 0 0.3,-2.623c0.006,-0.158 0.018,-0.32 0.019,-0.476l0,-0.07c0,-0.092 -0.008,-0.183 -0.01,-0.275c-0.018,-0.33 -0.045,-0.706 -0.064,-0.954c-0.006,-0.045 0,-0.092 -0.01,-0.137l-0.014,-0.105l-0.31,-2.528l-0.018,-0.158a4.551,4.551 0 0 0 -0.269,-0.883zm-19.013,12.59a7.773,7.773 0 0 1 -6.322,-2.229a8.893,8.893 0 0 1 -1.332,-1.847a7,7 0 0 1 -0.423,-1.822l-0.2,-1.635a6.8,6.8 0 0 1 0.2,-2.752a7.414,7.414 0 0 1 3.072,-3.8c0.17,-0.1 0.343,-0.189 0.519,-0.275c0.154,-0.078 0.314,-0.146 0.476,-0.215a8.383,8.383 0 0 1 0.9,-0.32a7.389,7.389 0 0 1 0.991,-0.224c0.086,-0.014 0.172,-0.029 0.258,-0.041s0.174,-0.016 0.261,-0.023a7.719,7.719 0 0 1 1.016,-0.021a8.746,8.746 0 0 1 0.952,0.094c0.172,0.027 0.345,0.055 0.513,0.094c0.191,0.041 0.382,0.088 0.57,0.142a7.414,7.414 0 0 1 3.9,2.945a6.783,6.783 0 0 1 0.862,2.621l0.2,1.633a6.876,6.876 0 0 1 0.029,1.871a8.8,8.8 0 0 1 -0.847,2.112a7.772,7.772 0 0 1 -5.596,3.692l0.001,0z" data-name="Path 12" id="Path_12"/>
   <g data-name="Group 11" id="Group_11">
    <path fill="#3fc080" d="m327.00199,154.488l2.6,-16.8a31.639,31.639 0 0 1 -26.458,-26.94l-16.846,2.294a48.656,48.656 0 0 0 40.7,41.446l0.004,0z" data-name="Path 13" id="Path_13"/>
    <path fill="#fac14d" d="m303.141,110.725a31.582,31.582 0 0 1 2.777,-17.806l-15.35,-7.3a48.561,48.561 0 0 0 -4.274,27.4l16.847,-2.294z" data-name="Path 14" id="Path_14"/>
    <path fill="#e6e6e6" d="m305.92699,92.90101a31.58,31.58 0 1 1 40.771,42.677l6.593,15.668a48.578,48.578 0 1 0 -62.714,-65.643l15.35,7.298z" data-name="Path 15" id="Path_15"/>
    <path fill="#5439f8" d="m353.27099,151.251l-6.591,-15.666a31.428,31.428 0 0 1 -17.059,2.1l-2.6,16.8a48.321,48.321 0 0 0 26.25,-3.234z" data-name="Path 16" id="Path_16"/>
   </g>
   <g data-name="Group 12" id="Group_12">
    <path fill="#3fc080" d="m109.736,272.80699a18.082,18.082 0 0 0 2.77,3.08l-1.03,2.947a2.008,2.008 0 0 0 1.014,2.465l4.25,2.064a2,2 0 0 0 2.565,-0.731l1.668,-2.614a17.635,17.635 0 0 0 4.3,0.283l1.371,2.838a2,2 0 0 0 2.46,1.024l4.467,-1.549a2,2 0 0 0 1.293,-2.327l-0.657,-2.965a17.882,17.882 0 0 0 3.454,-3.017l2.832,0.987a2.011,2.011 0 0 0 2.465,-1.012l2.062,-4.254a2,2 0 0 0 -0.73,-2.563l-2.489,-1.593a17.425,17.425 0 0 0 0.281,-4.523l2.559,-1.231a2.008,2.008 0 0 0 1.026,-2.461l-1.549,-4.465a2.007,2.007 0 0 0 -2.329,-1.3l-2.733,0.6a17.432,17.432 0 0 0 -2.941,-3.355l0.907,-2.6a2.009,2.009 0 0 0 -1.012,-2.465l-4.244,-2.058a2,2 0 0 0 -2.563,0.73l-1.439,2.259a17.594,17.594 0 0 0 -4.7,-0.3l-1.188,-2.463a2,2 0 0 0 -2.46,-1.022l-4.469,1.549a2,2 0 0 0 -1.3,2.325l0.591,2.672a17.541,17.541 0 0 0 -3.595,3.242l-2.625,-0.919a2.011,2.011 0 0 0 -2.465,1.016l-2.06,4.252a2,2 0 0 0 0.731,2.563l2.475,1.58a17.092,17.092 0 0 0 -0.189,4.482l-2.645,1.27a2,2 0 0 0 -1.024,2.46l1.549,4.467a2,2 0 0 0 2.329,1.3l3.017,-0.668zm11.994,-17.7a7.816,7.816 0 1 1 -4.824,9.946a7.829,7.829 0 0 1 4.824,-9.946zm0,0" data-name="Path 17" id="Path_17"/>
    <path fill="#fac14d" d="m170.46,252.97899l-3.049,-1.174a1.973,1.973 0 0 0 -2.461,0.928l-0.878,1.67a14.3,14.3 0 0 0 -3.86,0.084l-0.993,-1.668a1.987,1.987 0 0 0 -2.506,-0.807l-2.984,1.33a1.983,1.983 0 0 0 -1.088,2.4l0.573,1.847a14.347,14.347 0 0 0 -2.711,2.894l-1.911,-0.493a1.979,1.979 0 0 0 -2.341,1.205l-1.166,3.062a1.967,1.967 0 0 0 0.928,2.46l1.865,0.979a14.923,14.923 0 0 0 0.148,3.671l-1.808,1.071a2,2 0 0 0 -0.806,2.51l1.328,2.984a1.985,1.985 0 0 0 2.4,1.086l2.124,-0.661a14.563,14.563 0 0 0 2.475,2.325l-0.558,2.181a1.98,1.98 0 0 0 1.2,2.342l3.049,1.17a1.972,1.972 0 0 0 2.461,-0.928l1.04,-1.978a14.385,14.385 0 0 0 3.523,-0.066l1.159,1.962a1.991,1.991 0 0 0 2.51,0.806l2.984,-1.328a1.981,1.981 0 0 0 1.086,-2.4l-0.648,-2.089a14.653,14.653 0 0 0 2.608,-2.7l2.087,0.533a1.985,1.985 0 0 0 2.342,-1.205l1.17,-3.047a1.973,1.973 0 0 0 -0.928,-2.462l-1.874,-0.977a14.144,14.144 0 0 0 -0.08,-3.71l1.74,-1.03a1.993,1.993 0 0 0 0.806,-2.51l-1.328,-2.982a1.978,1.978 0 0 0 -2.4,-1.088l-1.9,0.591a14.428,14.428 0 0 0 -2.633,-2.54l0.49,-1.9a1.965,1.965 0 0 0 -1.192,-2.35l0.007,0.002zm-5.426,21.795a6.4,6.4 0 1 1 3.251,-8.444a6.394,6.394 0 0 1 -3.251,8.444zm0,0" data-name="Path 18" id="Path_18"/>
    <path fill="#5439f8" d="m129.914,296.22699a1.979,1.979 0 0 0 -1.038,2.422l0.634,1.9a1.974,1.974 0 0 0 2.282,1.313l1.453,-0.3a11.424,11.424 0 0 0 1.828,2.073l-0.515,1.418a1.978,1.978 0 0 0 0.975,2.446l1.794,0.9a1.975,1.975 0 0 0 2.543,-0.69l0.817,-1.246a11.54,11.54 0 0 0 2.857,0.222l0.648,1.385a1.982,1.982 0 0 0 2.424,1.038l1.9,-0.634a1.976,1.976 0 0 0 1.315,-2.294l-0.3,-1.422a11.79,11.79 0 0 0 2.329,-1.982l1.342,0.484a1.975,1.975 0 0 0 2.444,-0.975l0.9,-1.794a1.98,1.98 0 0 0 -0.69,-2.543l-1.165,-0.76a11.5,11.5 0 0 0 0.228,-3.014l1.2,-0.556a1.978,1.978 0 0 0 1.038,-2.423l-0.634,-1.9a1.971,1.971 0 0 0 -2.282,-1.311l-1.266,0.263a11.871,11.871 0 0 0 -1.933,-2.264l0.433,-1.19a1.975,1.975 0 0 0 -0.971,-2.444l-1.8,-0.9a1.973,1.973 0 0 0 -2.543,0.69l-0.665,1.008a11.646,11.646 0 0 0 -3.132,-0.238l-0.527,-1.133a1.978,1.978 0 0 0 -2.423,-1.036l-1.9,0.634a1.971,1.971 0 0 0 -1.313,2.282l0.254,1.219a11.98,11.98 0 0 0 -2.419,2.13l-1.2,-0.437a1.971,1.971 0 0 0 -2.444,0.973l-0.9,1.8a1.977,1.977 0 0 0 0.689,2.545l1.159,0.753a11.462,11.462 0 0 0 -0.16,2.99l-1.266,0.598zm11.477,-6.377a5.211,5.211 0 1 1 -3.3,6.591a5.209,5.209 0 0 1 3.3,-6.591zm0,0" data-name="Path 19" id="Path_19"/>
   </g>
   <g data-name="Group 14" id="Group_14">
    <g data-name="Group 13" id="Group_13">
     <path fill="#fac14d" d="m348.748,235.025a12.051,12.051 0 0 0 -11.174,0.973a2.185,2.185 0 0 1 -3.5,-1.467a12.051,12.051 0 0 0 -23.847,2.247c-0.936,10.971 8.227,28.175 12.249,30.346c4.367,1.344 23.059,-4.192 30.221,-12.555a12.041,12.041 0 0 0 -3.952,-19.544l0.003,0zm0,0" data-name="Path 20" id="Path_20"/>
    </g>
   </g>
   <g data-name="Group 19" id="Group_19">
    <g data-name="Group 18" id="Group_18">
     <g data-name="Group 15" id="Group_15">
      <path fill="#5439f8" d="m313.34799,334.411a85.124,85.124 0 0 1 -24.367,-0.517l2.21,-13.267a71.72,71.72 0 0 0 83.43,-67.929l13.441,0.5a85.128,85.128 0 0 1 -74.713,81.214l-0.001,-0.001z" data-name="Path 21" id="Path_21"/>
     </g>
     <g data-name="Group 17" id="Group_17">
      <g data-name="Group 16" id="Group_16">
       <path fill="#5439f8" d="m401.18599,256.52001l-24.1,-32.217l-15.858,36.976l39.958,-4.759z" data-name="Path 22" id="Path_22"/>
      </g>
     </g>
    </g>
   </g>
   <g data-name="Group 24" id="Group_24">
    <g data-name="Group 23" id="Group_23">
     <g data-name="Group 20" id="Group_20">
      <path fill="#3fc080" d="m87.835,0.636a85.267,85.267 0 0 1 24.367,0.517l-2.207,13.269a71.719,71.719 0 0 0 -83.428,67.929l-13.441,-0.5a85.123,85.123 0 0 1 74.709,-81.215z" data-name="Path 23" id="Path_23"/>
     </g>
     <g data-name="Group 22" id="Group_22">
      <g data-name="Group 21" id="Group_21">
       <path fill="#3fc080" d="m0,78.526l24.1,32.217l15.855,-36.974l-39.955,4.757z" data-name="Path 24" id="Path_24"/>
      </g>
     </g>
    </g>
   </g>
  </g>
  <text transform="rotate(5.9756 148.938 169.039)" opacity="0.8" font-style="normal" font-weight="bold" xml:space="preserve" text-anchor="start" font-family="'Montserrat'" font-size="20" id="svg_6" y="176.037" x="92.59299" stroke-width="0" stroke="#000" fill="#000000">Innovation</text>
  <path stroke="#000" d="m145.59299,165.037c0,1 0,2 0,3c0,1 0,2 0,3c0,1 0,2 0,3c0,1 -0.29289,1.29289 -1,2c-0.70711,0.70711 0,2 0,3c0,1 0,0 0,-2c0,-1 0,-2 0,-3c0,-1 0,-2 0,-3l0,-1l0,-1l0,-1" id="svg_7" stroke-width="0" fill="none"/>
  <rect id="svg_8" height="6.66665" width="3.33333" y="170.53628" x="145.2396" stroke-width="0" stroke="#000" fill="none"/>
  <path d="m142.73961,160.5363c0.41666,2.91666 1.66666,5.83331 1.66666,6.66666c0,1.66666 0,4.16666 0,5.83331c0,2.91666 0,4.58333 0,5.41666c0,0.41667 -0.41667,1.25 0,1.25c0.41667,0 10.60918,-30.88451 12.49997,-45.41656c0.10753,-0.82639 0.19118,-1.12227 0.41667,-1.66667c0.15945,-0.38493 -7.34366,21.46513 -17.91663,48.74989c-2.76787,7.14278 -4.16666,11.66664 -4.16666,12.49998c0,0.41666 3.23969,-4.71999 13.3333,-32.49994c2.24982,-6.192 2.5,-6.66666 2.91666,-7.08331l0,-0.41667l0.41667,0" id="svg_9" stroke-width="0" stroke="#000" fill="none"/>
  <path d="m146.48959,169.28629c0,0.41666 0,0.83333 0,1.25c0,0.41666 0,0.83333 0,1.24998c0,0.41667 0.29462,0.95538 0,1.25c-0.29462,0.29462 -0.41666,0.41667 -0.41666,0.83333c0,0.41667 -0.19118,0.7056 -0.41667,1.25c-0.15945,0.38495 -0.41667,0.41667 -0.41667,0.83333c0,0.41667 -0.19116,0.70561 -0.41666,1.25c-0.15945,0.38495 -0.12204,1.12796 -0.41667,0.83333c-0.29462,-0.29462 0,-0.83333 0,-1.24998l0,-0.41667l0,-0.41667" id="svg_11" stroke-width="0" stroke="#000" fill="none"/>
  <path stroke="#000" d="m149.07306,168.75781c-1.33511,3.07076 -3.67456,8.91444 -5.47395,13.08411c-0.97256,2.25369 -1.53488,3.5925 -1.60214,4.13885c-0.01631,0.13251 -0.0638,0.25928 0,0c0.75621,-3.07343 3.73409,-8.27922 6.54205,-16.15488c0.66655,-1.86951 1.19986,-3.43886 1.33511,-4.27235c0.02139,-0.13179 0.26131,-0.49535 0.13351,-0.53404c-0.46072,-0.1395 -2.25427,2.81392 -5.60748,7.87717c-0.26579,0.40134 -0.40053,1.06808 -0.40053,1.2016c0,0.13351 0.21468,0.19647 2.26968,-2.53671c1.66959,-2.22057 1.86917,-2.40321 1.86917,-2.67023c0,-0.13351 -1.50104,2.20235 -2.13618,4.00534c-0.18291,0.51921 -0.2583,0.88713 -0.13351,0.93457c1.50273,0.57133 3.16486,-3.47684 4.53938,-6.67555c0.21733,-0.50577 0.24623,-0.55203 0.13351,-0.40054c-1.17671,1.58153 -1.7339,3.30536 -1.86916,4.13885c-0.04277,0.26357 2.78584,-4.38882 4.6729,-9.74632c0.50572,-1.43581 0.29477,-1.83284 -0.80107,-0.53404c-2.53218,3.00116 -5.33945,9.32115 -5.47397,10.41388c-0.03262,0.26501 -0.09441,0.57315 0,0.66756c0.09441,0.09441 1.47615,-0.33165 5.47397,-9.21228c1.45622,-3.23482 2.06892,-5.9957 2.13618,-6.54205c0.01631,-0.13251 -0.9231,-0.21414 -5.07344,8.41121c-1.11803,2.32353 -1.16249,2.57582 -1.06808,2.67023c0.09441,0.09441 0.9691,0.4511 8.94525,-5.20694c7.51694,-5.33229 9.1777,-7.50883 10.54739,-8.94527c0.26059,-0.2733 0.37761,-0.28813 0.13351,0c-3.7119,4.38162 -13.26004,19.73907 -18.55807,30.7076c-1.48048,3.06506 -2.08264,4.87338 -1.73564,5.07344c2.53935,1.46407 7.98705,-4.00238 15.4873,-13.48465c6.15652,-7.78343 7.5788,-10.86775 8.67824,-14.15219c0.2578,-0.77013 0.20148,-1.091 -0.26701,-1.2016c-5.23805,-1.23651 -11.43338,3.29109 -20.96127,11.74899c-4.37733,3.88576 -9.18733,10.6566 -10.54739,14.41922c-0.18713,0.5177 -0.13351,1.2016 -0.13351,1.46863c0,0.26701 0.64558,0.73041 3.73831,-1.20161c5.78485,-3.61378 14.91838,-18.41231 21.89586,-36.44858c2.81914,-7.28726 -1.68884,-12.75493 -7.34312,-4.6729c-11.62981,16.62326 -16.28654,31.41011 -17.08945,35.51401c-0.54077,2.76402 -0.2812,3.39214 0.13351,3.4713c2.36421,0.45131 8.66801,-1.2191 11.21495,-3.20427c7.59642,-5.9209 12.41682,-15.47186 13.48463,-18.95862c0.87421,-2.85454 0.10349,-4.26292 -2.00267,-4.40587c-9.35284,-0.63475 -21.74257,9.50479 -26.30173,14.41922c-7.2198,7.78239 -9.62555,12.81407 -9.74632,13.35114c-0.14935,0.66418 -0.05426,1.17734 0.40054,1.33511c3.1635,1.09743 13.85367,-2.43051 18.02402,-7.20961c11.29767,-12.94684 13.56801,-29.10245 13.35114,-33.11081c-0.12453,-2.30139 -3.38445,-3.43283 -7.07611,-1.46861c-10.97166,5.83768 -16.10822,17.95001 -17.48997,22.42989c-2.07106,6.71468 -1.83185,9.02162 -1.60213,9.21228c0.74794,0.62073 7.23558,-0.09093 10.94792,-2.80373c8.76872,-6.40776 13.48073,-18.47406 13.88518,-21.36182c0.16666,-1.18999 -0.13351,-1.60213 -0.26703,-1.60213l-1.86916,0.66756l-4.27235,3.47128l-2.00267,2.67023" id="svg_12" stroke-width="0" fill="none"/>
 </g>
</svg>